<?xml version="1.0" standalone="no"?><!DOCTYPE svg PUBLIC "-//W3C//DTD SVG 1.1//EN" "http://www.w3.org/Graphics/SVG/1.1/DTD/svg11.dtd"><svg width="200" height="200" viewBox="0 0 200 200" version="1.1" xmlns="http://www.w3.org/2000/svg" xmlns:xlink="http://www.w3.org/1999/xlink"><defs><style type="text/css"><![CDATA[

]]></style></defs><g class="transform-group"><g transform="scale(0.1953125, 0.1953125)"><path d="M883.380282 389.408451l-194.704225 0c14.422535-54.084507 39.661972-158.647887 39.661972-198.309859 0-54.084507-64.901408-155.042254-144.225352-155.042254-14.422535 0-28.84507 3.605634-39.661972 10.816901-54.084507 28.84507-64.901408 68.507042-75.71831 118.985915-7.211268 28.84507-14.422535 64.901408-32.450704 108.169014-43.267606 100.957746-104.56338 115.380282-115.380282 118.985915L187.492958 393.014085l7.211268 526.422535 25.239437 0c0 0 3.605634 0 10.816901 0 21.633803 0 93.746479 3.605634 137.014085 36.056338 39.661972 32.450704 72.112676 36.056338 93.746479 36.056338 10.816901 0 18.028169 0 21.633803-3.605634l335.323944 0c79.323944 0 108.169014-57.690141 111.774648-61.295775l3.605634-3.605634c3.605634-10.816901 68.507042-295.661972 68.507042-396.619718C1002.366197 425.464789 926.647887 393.014085 883.380282 389.408451zM21.633803 374.985915l46.873239 0 0 555.267606-46.873239 0 0-555.267606Z" fill="#eb4f38"></path></g></g></svg>